<svg class="icon" viewBox="0 0 1154 1024" xmlns="http://www.w3.org/2000/svg" width="225.391" height="200"><defs><style/></defs><path d="M1000.187 78.387q60.527 0 96.744 30.76t36.217 93.272v550.699q0 26.791-9.923 50.605t-27.287 41.674-40.682 28.279-49.116 10.419H140.898q-25.798 0-48.62-9.923t-39.69-26.295-26.791-38.202-9.922-46.636V200.433q0-53.582 32.744-87.814t92.279-34.233h859.288zm-705.49 183.566q-18.853 0-35.721 6.946t-29.768 19.349-20.341 29.768-7.442 37.209 7.442 36.713 20.341 29.767 29.768 20.341 35.721 7.442q20.837 0 38.202-7.442t29.768-20.341 19.845-29.767 7.442-36.713q0-40.682-26.791-66.977t-68.465-26.295zM450.48 605.271q0-18.853-7.442-36.217t-19.845-29.767-29.767-19.845T357.209 512H233.178q-38.698 0-65.488 27.287t-26.791 65.985v93.271h309.582v-93.271zm460.405 98.233q19.845 0 29.271-9.923t9.426-23.814-10.915-24.31-30.76-10.419H612.216q-19.845 0-29.767 10.419t-9.922 24.31 9.922 23.814 28.775 9.923h299.659zm.992-128q19.845 0 28.775-9.922t8.93-23.814q0-14.884-8.434-24.806t-28.279-9.922H609.241q-19.845 0-28.775 9.922t-8.93 24.806q0 13.892 8.434 23.814t28.279 9.922h303.629zm.992-126.016q14.884 0 25.799-9.923t10.915-23.814-10.915-22.326-25.798-8.434H711.443q-14.884 0-25.302 8.434t-10.419 22.326 10.419 23.814 25.302 9.922H912.87z"/></svg>