<svg class="icon" viewBox="0 0 1228 1024" xmlns="http://www.w3.org/2000/svg" width="239.844" height="200"><defs><style/></defs><path d="M1148.056 364.75a599.04 599.04 0 0 0-125.491-190.464A587.673 587.673 0 0 0 834.559 47.208 571.596 571.596 0 0 0 605.849.002a572.262 572.262 0 0 0-228.71 47.206 592.383 592.383 0 0 0-187.955 127.078A597.657 597.657 0 0 0 63.846 364.75 590.438 590.438 0 0 0 17.05 596.532c0 82.585 15.872 160.768 47.36 234.342A598.066 598.066 0 0 0 195.89 1024h820.019a597.247 597.247 0 0 0 131.481-193.126c31.59-73.933 47.667-153.753 47.258-234.342a592.076 592.076 0 0 0-46.592-231.782zM575.743 127.745h60.416v109.261h-60.416v-109.26zM251.084 572.57l-106.393-19.814 10.496-59.904 106.496 19.814-10.599 59.904zm102.503-231.68l-69.632-83.967 46.029-38.503 69.529 83.866-45.926 38.605zM694.578 710.4a91.238 91.238 0 0 1-40.09 57.242c-20.991 13.722-43.827 17.766-68.402 12.032a86.784 86.784 0 0 1-56.423-40.653 89.6 89.6 0 0 1-1.331-94.412L427.11 394.139l181.35 205.055c32.46.922 57.446 15.155 74.957 42.496 13.107 21.3 16.896 44.237 11.161 68.71zm163.686-369.51l-46.08-38.604 69.735-83.866 45.926 38.503-69.58 83.968zm102.451 231.68l-10.393-59.904 106.393-19.968 10.496 59.904-106.496 19.968z"/></svg>