<svg class="icon" viewBox="0 0 1024 1024" xmlns="http://www.w3.org/2000/svg" width="200" height="200"><defs><style/></defs><path d="M978.672 111.92l-67.584-67.44c-18.656-18.624-48.912-18.624-67.568 0L742.176 145.632l135.136 134.864 101.344-101.152c18.688-18.608 18.688-48.8.016-67.424zM848 912H112V176h533.712l96-96H64c-26.512 0-48 21.488-48 48v832c0 26.512 21.488 48 48 48h832c26.512 0 48-21.488 48-48V285.008l-96 96V912zm-4.464-597.776L708.416 179.36 303.008 583.968l135.136 134.864 405.392-404.608zM223.968 797.44l180.128-44.896-135.152-134.896-44.976 179.792z"/></svg>