<svg class="icon" viewBox="0 0 1024 1024" xmlns="http://www.w3.org/2000/svg" width="200" height="200"><defs><style/></defs><path d="M1020.78 455.149c-1.619-14.394-18.402-25.211-32.914-25.211-46.92 0-88.557-27.55-106.018-70.158-17.838-43.64-6.336-94.534 28.632-126.61 11.008-10.063 12.345-26.907 3.113-38.608-24.014-30.495-51.31-58.041-81.111-81.915-11.67-9.365-28.793-8.062-38.912 3.143-30.518 33.799-85.337 46.36-127.697 28.686-44.082-18.543-71.88-63.212-69.16-111.161.896-15.061-10.11-28.156-25.126-29.905-38.245-4.423-76.825-4.56-115.185-.305-14.844 1.638-25.85 14.425-25.352 29.295 1.67 47.477-26.464 91.365-70.108 109.241-41.853 17.096-96.287 4.64-126.744-28.857-10.066-11.034-26.91-12.39-38.637-3.25-30.686 24.076-58.595 51.645-82.83 81.889-9.453 11.758-8.062 28.8 3.056 38.916 35.635 32.27 47.14 83.607 28.628 127.75-17.675 42.085-61.376 69.209-111.405 69.209-16.234-.522-27.798 10.374-29.573 25.134-4.504 38.466-4.557 77.66-.221 116.438 1.608 14.455 18.901 25.177 33.574 25.177 44.584-1.14 87.39 26.464 105.347 70.161 17.9 43.64 6.393 94.504-28.629 126.607-10.954 10.063-12.344 26.88-3.113 38.58 23.79 30.302 51.089 57.875 80.998 81.946 11.73 9.453 28.8 8.12 38.968-3.086 30.633-33.882 85.448-46.42 127.64-28.712 44.192 18.486 71.99 63.151 69.27 111.127-.888 15.069 10.173 28.186 25.127 29.909a508.913 508.913 0 0 0 58.983 3.42c18.734 0 37.471-1.028 56.205-3.112 14.848-1.638 25.847-14.425 25.348-29.322-1.718-47.45 26.465-91.337 70.051-109.183 42.135-17.21 96.34-4.614 126.802 28.849 10.123 11.01 26.849 12.34 38.64 3.23a509.731 509.731 0 0 0 82.83-81.892c9.45-11.73 8.116-28.8-3.059-38.911-35.635-32.271-47.198-83.615-28.685-127.728 17.404-41.525 59.482-69.407 104.74-69.407l6.333.164c14.68 1.193 28.187-10.115 29.966-25.1 4.511-38.5 4.564-77.66.229-116.438zM512.81 683.864c-94.176 0-170.78-76.604-170.78-170.78 0-94.172 76.604-170.78 170.78-170.78 94.172 0 170.776 76.608 170.776 170.78 0 94.176-76.604 170.78-170.776 170.78z"/></svg>