<svg class="icon" viewBox="0 0 1000 1000" xmlns="http://www.w3.org/2000/svg" width="200" height="200"><defs><style/></defs><path d="M502.325 2.314C231.245 2.314 11.49 222.39 11.49 493.868c0 271.467 219.756 491.544 490.835 491.544 271.079 0 490.834-220.078 490.834-491.544 0-271.478-219.755-491.554-490.834-491.554zm-75.747 767.085c-97.717-14.136-46.014-145.897-14.379-207.354 27.637-53.69 49.425-139.718-4.394-139.988-7.769-.03-14.342-5.732 7.168-18.103 29.038-16.755 71.912-35.436 113.214-31.063 71.913 7.688 81.499 88.325 50.806 147.886-30.657 59.509-60.391 142.094-48.889 166.087 9.267 19.301 47.169 22.756 71.894 22.843 12.803.091 18.292 3.795 10.743 10.556-23.904 21.247-85.653 63.714-186.163 49.136zM545.78 314.65c-43.754 0-79.242-35.526-79.242-79.35 0-43.833 35.488-79.35 79.242-79.35 43.775 0 79.263 35.517 79.263 79.35.001 43.824-35.487 79.35-79.263 79.35z"/></svg>