<svg class="icon" viewBox="0 0 1024 1024" xmlns="http://www.w3.org/2000/svg" width="200" height="200"><defs><style/></defs><path d="M23.966.726v1022.548V.726zm23.24 0v1022.548V.726zm23.239 0v1022.548V.726zm23.24 0v1022.548V.726zm23.24 0v1022.548V.726zm23.24 0v1022.548V.726zm23.239 0v1022.548V.726zm23.24 0v1022.548V.726zm23.24 0v1022.548V.726zm23.239 0v1022.548V.726zm23.24 0v1022.548V.726zm23.24 0v1022.548V.726zm23.24 0v1022.548V.726zm23.239 0v1022.548V.726zm23.24 0v1022.548V.726zm23.24 0v1022.548V.726zm23.239 0v1022.548V.726zm23.24 0v1022.548V.726zm23.239 0v1022.548V.726zm23.24 0v1022.548V.726zm23.24 0v1022.548V.726zm23.24 0v1022.548V.726zm23.24 0v1022.548V.726zm23.24 0v1022.548V.726zm23.24 0v1022.548V.726zm23.239 0v1022.548V.726zm23.24 0v1022.548V.726zm23.239 0v1022.548V.726zm23.24 0v1022.548V.726zm23.24 0v1022.548V.726zm23.239 0v1022.548V.726zm23.24 0v1022.548V.726zm23.24 0v1022.548V.726zm23.24 0v1022.548V.726zm23.239 0v1022.548V.726zm23.24 0v1022.548V.726zm23.24 0v1022.548V.726zm23.239 0v1022.548V.726zm23.24 0v1022.548V.726zm23.24 0v1022.548V.726zm23.24 0v1022.548V.726zm23.239 0v1022.548V.726zm23.24 0v1022.548V.726zM.726 23.966h1022.548H.726zm0 23.24h1022.548H.726zm0 23.239h1022.548H.726zm0 23.24h1022.548H.726zm0 23.24h1022.548H.726zm0 23.24h1022.548H.726zm0 23.239h1022.548H.726zm0 23.24h1022.548H.726zm0 23.24h1022.548H.726zm0 23.239h1022.548H.726zm0 23.24h1022.548H.726zm0 23.24h1022.548H.726zm0 23.24h1022.548H.726zm0 23.239h1022.548H.726zm0 23.24h1022.548H.726zm0 23.24h1022.548H.726zm0 23.239h1022.548H.726zm0 23.24h1022.548H.726zm0 23.239h1022.548H.726zm0 23.24h1022.548H.726zm0 23.24h1022.548H.726zm0 23.24h1022.548H.726zm0 23.24h1022.548H.726zm0 23.24h1022.548H.726zm0 23.24h1022.548H.726zm0 23.239h1022.548H.726zm0 23.24h1022.548H.726zm0 23.239h1022.548H.726zm0 23.24h1022.548H.726zm0 23.24h1022.548H.726zm0 23.239h1022.548H.726zm0 23.24h1022.548H.726zm0 23.24h1022.548H.726zm0 23.24h1022.548H.726zm0 23.239h1022.548H.726zm0 23.24h1022.548H.726zm0 23.24h1022.548H.726zm0 23.239h1022.548H.726zm0 23.24h1022.548H.726zm0 23.24h1022.548H.726zm0 23.24h1022.548H.726zm0 23.239h1022.548H.726zm0 23.24h1022.548H.726zm1022.548-69.719c0 92.959-92.96 92.959-92.96 92.959L664.36 757.364c-68.93 50.106-153.522 79.992-245.319 79.992C187.991 837.356.726 650.09.726 419.041S187.992.726 419.041.726s418.315 187.266 418.315 418.315c0 91.797-29.933 176.39-80.038 245.365l265.956 265.909zM419.04 93.685c-179.69 0-325.356 145.667-325.356 325.356S239.351 744.397 419.04 744.397s325.356-145.666 325.356-325.356S598.731 93.685 419.041 93.685z"/></svg>