<svg class="icon" viewBox="0 0 1024 1024" xmlns="http://www.w3.org/2000/svg" width="200" height="200"><defs><style/></defs><path d="M959.356 875.375c0 15.672-2.796 30.897-7.366 45.793-135.907 54.679-295.099 86.194-465.34 86.194-146.159 0-284.079-23.344-406.214-64.461-9.976-21.554-15.791-44.13-15.791-67.526 0-118.396 136.727-218.099 323.454-249.339-79.265-61.486-133.066-181.232-133.066-318.93 0-200.444 114.001-269.007 254.628-269.007 140.634 0 254.636 68.562 254.636 269.007 0 137.281-53.497 256.675-132.373 318.378 188.738 30.448 327.434 130.646 327.434 249.89zM639.459 655.284c-36.982 23.299-81.911 37.129-130.486 37.129-46.465 0-89.643-12.645-125.685-34.124-.79 2.662-1.342 5.339-1.342 8.149 0 33.028 58.171 59.742 129.927 59.742S641.8 699.467 641.8 666.438c-.001-3.898-.859-7.551-2.342-11.153z"/></svg>